<svg width="229" height="157" viewBox="0 0 229 157" fill="none" xmlns="http://www.w3.org/2000/svg">
<path fill-rule="evenodd" clip-rule="evenodd" d="M99.8652 10.6145C114.072 -0.826521 137.837 -4.92451 150.406 8.70215C154.213 12.8287 157.769 17.3359 163.506 17.499C168.866 17.6512 175.011 12.657 182.121 8.70215C194.89 1.5987 212.142 2.45035 221.534 14.9173C240.199 39.692 218.958 99.4099 210.937 117.898C190.444 165.133 141.646 172.056 149.84 120.384C151.58 109.411 146.868 100.495 134.916 100.495H91.1235C103.366 104.776 130.136 106.5 124.505 120.384C111.591 152.224 81.1792 161.212 56.7085 144.576C21.7546 118.943 74.2741 121.263 91.1235 120.384C60.838 110.006 31.2214 101.984 0 94.9491H53.8016C62.381 72.6166 68.5034 74.3281 92.1751 72.4792L92.0871 72.4557L92.0796 72.479L0 51.73H72.4237C76.722 43.0318 80.7782 35.7568 84.6009 29.6784L0 10.6147L99.8652 10.6145ZM149.686 63.778C141.943 63.778 139.795 69.9931 142.588 76.8776C144.255 80.9877 147.513 84.2704 152.199 85.3782C157.677 86.6731 164.178 84.7967 169.106 79.1831C175.506 71.8917 170.711 66.8913 163.124 65.23C158.532 64.2247 153.216 63.778 149.686 63.778ZM204.993 19.613C193.549 16.2277 180.671 25.6522 176.231 40.6634C171.791 55.6746 177.469 70.5881 188.914 73.9734C200.358 77.3587 213.236 67.9339 217.676 52.9228C222.116 37.9116 216.438 22.9984 204.993 19.613ZM141.62 22.821C145.147 14.9173 128.438 13.3874 124.753 20.7268L120.287 30.665C119.139 33.1803 117.705 35.1413 114.741 35.1413H105.517C92.0796 35.1413 87.0325 51.7005 101.546 51.7005H105.598C107.857 51.7005 110.861 51.6372 108.843 56.1285L104.616 65.534C101.355 72.4556 118.478 73.4351 121.482 67.6283L126.221 57.0846C127.649 53.9293 129.466 51.7005 133.578 51.7005H143.293C155.187 51.7005 159.777 35.1413 149.007 35.1413H138.645C136.924 35.1413 136.637 33.5627 137.265 32.4153L141.62 22.821Z" fill="white"/>
</svg>
