<svg width="306" height="306" viewBox="0 0 306 306" fill="none" xmlns="http://www.w3.org/2000/svg">
<g clip-path="url(#clip0_2054_10995)">
<rect width="306" height="306" fill="url(#paint0_linear_2054_10995)"/>
<g filter="url(#filter0_dii_2054_10995)">
<path d="M179.356 49.7109C191.609 49.7111 201.637 54.6407 208.46 62.4971C215.072 70.1101 218.192 79.8783 218.288 89.251C218.384 98.6248 215.459 108.499 208.806 116.22C208.599 116.459 208.388 116.695 208.176 116.929C208.27 117.035 208.367 117.14 208.46 117.247C215.072 124.86 218.192 134.628 218.288 144.001C218.384 153.375 215.459 163.249 208.806 170.97C201.932 178.947 191.771 183.792 179.356 183.792H97C90.2122 183.792 84.7092 178.29 84.709 171.502C84.709 164.714 90.212 159.211 97 159.211H179.356C184.982 159.211 188.213 157.212 190.185 154.924C192.377 152.379 193.752 148.565 193.708 144.252C193.664 139.938 192.205 136.019 189.901 133.366C187.809 130.957 184.585 129.043 179.356 129.043H97C90.212 129.043 84.709 123.54 84.709 116.752C84.709 109.964 90.212 104.461 97 104.461H179.356C184.982 104.461 188.213 102.462 190.185 100.174C192.377 97.6291 193.752 93.8154 193.708 89.502C193.664 85.1875 192.205 81.2686 189.901 78.6162C187.809 76.2073 184.585 74.2931 179.356 74.293H97C90.212 74.293 84.709 68.7899 84.709 62.002C84.709 55.214 90.212 49.7109 97 49.7109H179.356Z" fill="#2B2B2B"/>
</g>
<g filter="url(#filter1_dii_2054_10995)">
<path d="M245.169 212.922C141.894 262.073 77.8008 220.95 36.7726 195.973C34.2338 194.399 29.9187 196.341 33.6626 200.641C47.3312 217.215 92.1259 257.162 150.596 257.162C209.107 257.162 243.915 225.236 248.269 219.666C252.594 214.144 249.539 211.098 245.168 212.922H245.169ZM274.173 196.904C271.4 193.293 257.31 192.62 248.442 193.709C239.56 194.767 226.229 200.195 227.388 203.454C227.983 204.675 229.197 204.127 235.298 203.579C241.416 202.968 258.555 200.805 262.126 205.474C265.714 210.175 256.66 232.568 255.006 236.179C253.409 239.79 255.617 240.722 258.618 238.316C261.578 235.912 266.936 229.685 270.532 220.873C274.103 212.014 276.281 199.654 274.173 196.904Z" fill="#FF9900"/>
<path d="M245.169 212.922C141.894 262.073 77.8008 220.95 36.7726 195.973C34.2338 194.399 29.9187 196.341 33.6626 200.641C47.3312 217.215 92.1259 257.162 150.596 257.162C209.107 257.162 243.915 225.236 248.269 219.666C252.594 214.144 249.539 211.098 245.168 212.922H245.169ZM274.173 196.904C271.4 193.293 257.31 192.62 248.442 193.709C239.56 194.767 226.229 200.195 227.388 203.454C227.983 204.675 229.197 204.127 235.298 203.579C241.416 202.968 258.555 200.805 262.126 205.474C265.714 210.175 256.66 232.568 255.006 236.179C253.409 239.79 255.617 240.722 258.618 238.316C261.578 235.912 266.936 229.685 270.532 220.873C274.103 212.014 276.281 199.654 274.173 196.904Z" fill="#FF9900"/>
</g>
</g>
<defs>
<filter id="filter0_dii_2054_10995" x="80.709" y="47.7109" width="141.582" height="144.082" filterUnits="userSpaceOnUse" color-interpolation-filters="sRGB">
<feFlood flood-opacity="0" result="BackgroundImageFix"/>
<feColorMatrix in="SourceAlpha" type="matrix" values="0 0 0 0 0 0 0 0 0 0 0 0 0 0 0 0 0 0 127 0" result="hardAlpha"/>
<feOffset dy="4"/>
<feGaussianBlur stdDeviation="2"/>
<feComposite in2="hardAlpha" operator="out"/>
<feColorMatrix type="matrix" values="0 0 0 0 0 0 0 0 0 0 0 0 0 0 0 0 0 0 0.25 0"/>
<feBlend mode="normal" in2="BackgroundImageFix" result="effect1_dropShadow_2054_10995"/>
<feBlend mode="normal" in="SourceGraphic" in2="effect1_dropShadow_2054_10995" result="shape"/>
<feColorMatrix in="SourceAlpha" type="matrix" values="0 0 0 0 0 0 0 0 0 0 0 0 0 0 0 0 0 0 127 0" result="hardAlpha"/>
<feOffset dy="-3"/>
<feGaussianBlur stdDeviation="1"/>
<feComposite in2="hardAlpha" operator="arithmetic" k2="-1" k3="1"/>
<feColorMatrix type="matrix" values="0 0 0 0 0 0 0 0 0 0 0 0 0 0 0 0 0 0 0.22 0"/>
<feBlend mode="normal" in2="shape" result="effect2_innerShadow_2054_10995"/>
<feColorMatrix in="SourceAlpha" type="matrix" values="0 0 0 0 0 0 0 0 0 0 0 0 0 0 0 0 0 0 127 0" result="hardAlpha"/>
<feOffset dy="2"/>
<feGaussianBlur stdDeviation="2"/>
<feComposite in2="hardAlpha" operator="arithmetic" k2="-1" k3="1"/>
<feColorMatrix type="matrix" values="0 0 0 0 1 0 0 0 0 1 0 0 0 0 1 0 0 0 0.72 0"/>
<feBlend mode="normal" in2="effect2_innerShadow_2054_10995" result="effect3_innerShadow_2054_10995"/>
</filter>
<filter id="filter1_dii_2054_10995" x="28.1973" y="191.234" width="250.803" height="73.9258" filterUnits="userSpaceOnUse" color-interpolation-filters="sRGB">
<feFlood flood-opacity="0" result="BackgroundImageFix"/>
<feColorMatrix in="SourceAlpha" type="matrix" values="0 0 0 0 0 0 0 0 0 0 0 0 0 0 0 0 0 0 127 0" result="hardAlpha"/>
<feOffset dy="4"/>
<feGaussianBlur stdDeviation="2"/>
<feComposite in2="hardAlpha" operator="out"/>
<feColorMatrix type="matrix" values="0 0 0 0 0 0 0 0 0 0 0 0 0 0 0 0 0 0 0.25 0"/>
<feBlend mode="normal" in2="BackgroundImageFix" result="effect1_dropShadow_2054_10995"/>
<feBlend mode="normal" in="SourceGraphic" in2="effect1_dropShadow_2054_10995" result="shape"/>
<feColorMatrix in="SourceAlpha" type="matrix" values="0 0 0 0 0 0 0 0 0 0 0 0 0 0 0 0 0 0 127 0" result="hardAlpha"/>
<feOffset dy="-3"/>
<feGaussianBlur stdDeviation="1"/>
<feComposite in2="hardAlpha" operator="arithmetic" k2="-1" k3="1"/>
<feColorMatrix type="matrix" values="0 0 0 0 0 0 0 0 0 0 0 0 0 0 0 0 0 0 0.22 0"/>
<feBlend mode="normal" in2="shape" result="effect2_innerShadow_2054_10995"/>
<feColorMatrix in="SourceAlpha" type="matrix" values="0 0 0 0 0 0 0 0 0 0 0 0 0 0 0 0 0 0 127 0" result="hardAlpha"/>
<feOffset dy="4"/>
<feGaussianBlur stdDeviation="1"/>
<feComposite in2="hardAlpha" operator="arithmetic" k2="-1" k3="1"/>
<feColorMatrix type="matrix" values="0 0 0 0 1 0 0 0 0 1 0 0 0 0 1 0 0 0 0.8 0"/>
<feBlend mode="normal" in2="effect2_innerShadow_2054_10995" result="effect3_innerShadow_2054_10995"/>
</filter>
<linearGradient id="paint0_linear_2054_10995" x1="338.5" y1="-32.5" x2="0" y2="306" gradientUnits="userSpaceOnUse">
<stop stop-color="white"/>
<stop offset="0.461544" stop-color="#F8F8F8"/>
<stop offset="1" stop-color="#D8D8D8"/>
</linearGradient>
<clipPath id="clip0_2054_10995">
<rect width="306" height="306" fill="white"/>
</clipPath>
</defs>
</svg>
