<svg width="306" height="306" viewBox="0 0 306 306" fill="none" xmlns="http://www.w3.org/2000/svg">
<g clip-path="url(#clip0_2044_13294)">
<rect width="306" height="306" fill="white"/>
<path d="M97 171.5C118.253 171.5 163.106 171.5 179.356 171.5C215.438 171.5 214.32 116.75 179.356 116.75C155.884 116.75 115.244 116.75 97 116.75" stroke="black" stroke-width="24.5814" stroke-linecap="round"/>
<path d="M97 116.75C118.253 116.75 163.106 116.75 179.356 116.75C215.438 116.75 214.32 62 179.356 62C155.884 62 115.244 62 97 62" stroke="black" stroke-width="24.5814" stroke-linecap="round"/>
<path d="M245.169 212.922C141.894 262.073 77.8008 220.95 36.7726 195.973C34.2338 194.399 29.9187 196.341 33.6626 200.641C47.3312 217.215 92.1259 257.162 150.596 257.162C209.107 257.162 243.915 225.236 248.269 219.666C252.594 214.144 249.539 211.098 245.168 212.922H245.169ZM274.173 196.904C271.4 193.293 257.31 192.62 248.442 193.709C239.56 194.767 226.229 200.195 227.388 203.454C227.983 204.675 229.197 204.127 235.298 203.579C241.416 202.968 258.555 200.805 262.126 205.474C265.714 210.175 256.66 232.568 255.006 236.179C253.409 239.79 255.617 240.722 258.618 238.316C261.578 235.912 266.936 229.685 270.532 220.873C274.103 212.014 276.281 199.654 274.173 196.904Z" fill="#FF9900"/>
<path d="M245.169 212.922C141.894 262.073 77.8008 220.95 36.7726 195.973C34.2338 194.399 29.9187 196.341 33.6626 200.641C47.3312 217.215 92.1259 257.162 150.596 257.162C209.107 257.162 243.915 225.236 248.269 219.666C252.594 214.144 249.539 211.098 245.168 212.922H245.169ZM274.173 196.904C271.4 193.293 257.31 192.62 248.442 193.709C239.56 194.767 226.229 200.195 227.388 203.454C227.983 204.675 229.197 204.127 235.298 203.579C241.416 202.968 258.555 200.805 262.126 205.474C265.714 210.175 256.66 232.568 255.006 236.179C253.409 239.79 255.617 240.722 258.618 238.316C261.578 235.912 266.936 229.685 270.532 220.873C274.103 212.014 276.281 199.654 274.173 196.904Z" fill="#FF9900"/>
</g>
<defs>
<clipPath id="clip0_2044_13294">
<rect width="306" height="306" fill="white"/>
</clipPath>
</defs>
</svg>
