<svg width="96" height="24" viewBox="0 0 96 24" fill="none" xmlns="http://www.w3.org/2000/svg">
<path fill-rule="evenodd" clip-rule="evenodd" d="M0.352962 0H16.9422C20.8409 0 24.0014 3.16053 24.0014 7.05924V16.9422C24.0014 20.8409 20.8409 24.0014 16.9422 24.0014H0.352962C0.158026 24.0014 0 23.8434 0 23.6484V0.352962C0 0.158027 0.158026 0 0.352962 0ZM6.30919 7.50044C5.60255 7.50044 5.02971 6.92759 5.02971 6.22095C5.02971 5.51431 5.60255 4.94147 6.30919 4.94147H15.0009C17.3038 4.94147 19.1041 6.85543 19.1041 9.13289C19.1041 10.2529 18.6687 11.285 17.9522 12.0448C18.6687 12.8046 19.1041 13.8367 19.1041 14.9568C19.1041 17.2342 17.3038 19.1482 15.0009 19.1482H6.30919C5.60255 19.1482 5.02971 18.5753 5.02971 17.8687C5.02971 17.1621 5.60255 16.5892 6.30919 16.5892H15.0009C15.8169 16.5892 16.5451 15.8957 16.5451 14.9568C16.5451 14.0178 15.8169 13.3243 15.0009 13.3243H6.30919C5.60255 13.3243 5.02971 12.7515 5.02971 12.0448C5.02971 11.3382 5.60255 10.7653 6.30919 10.7653H15.0009C15.8169 10.7653 16.5451 10.0719 16.5451 9.13289C16.5451 8.19391 15.8169 7.50044 15.0009 7.50044H6.30919Z" fill="white"/>
<path d="M89.4094 19.5895C87.3211 19.5895 85.7769 19.1243 84.7768 18.1941C83.7915 17.2638 83.2988 15.9053 83.2988 14.1186C83.2988 12.3466 83.7988 10.9955 84.7989 10.0652C85.7989 9.12017 87.3358 8.64765 89.4094 8.64765C91.4978 8.64765 93.042 9.12017 94.0421 10.0652C95.0568 10.9955 95.5642 12.3466 95.5642 14.1186C95.5642 15.9053 95.0642 17.2638 94.0641 18.1941C93.0641 19.1243 91.5125 19.5895 89.4094 19.5895ZM89.4094 16.555C90.0859 16.555 90.5713 16.363 90.8654 15.9791C91.1742 15.5952 91.3287 14.975 91.3287 14.1186C91.3287 13.2769 91.1742 12.6641 90.8654 12.2802C90.5713 11.8815 90.0859 11.6821 89.4094 11.6821C88.7476 11.6821 88.2697 11.8815 87.9755 12.2802C87.6814 12.6641 87.5343 13.2769 87.5343 14.1186C87.5343 14.975 87.6814 15.5952 87.9755 15.9791C88.2697 16.363 88.7476 16.555 89.4094 16.555Z" fill="white"/>
<path d="M74.9652 19.5895C73.9744 19.5895 73.1092 19.4268 72.3698 19.1013C71.6451 18.7611 71.0757 18.2137 70.6617 17.4593C70.2624 16.7049 70.0627 15.699 70.0627 14.4416C70.0627 13.1546 70.2919 12.0821 70.7504 11.2242C71.2088 10.3662 71.8226 9.72271 72.5916 9.29372C73.3606 8.84993 74.1962 8.62804 75.0983 8.62804C75.5864 8.62804 76.067 8.67982 76.5402 8.78337C77.0283 8.88692 77.4498 9.03484 77.8047 9.22715V4.41211H81.9752V19.3676H78.3593L78.1596 18.5466C77.7455 18.872 77.2797 19.1309 76.7621 19.3232C76.2593 19.5007 75.6603 19.5895 74.9652 19.5895ZM76.1631 16.5718C76.7991 16.5718 77.3462 16.3573 77.8047 15.9283V12.2005C77.3906 11.8307 76.8434 11.6458 76.1631 11.6458C75.6159 11.6458 75.1723 11.8898 74.8321 12.378C74.492 12.8662 74.3219 13.5614 74.3219 14.4638C74.3219 15.3513 74.4698 15.9283 74.7656 16.1945C75.0614 16.446 75.5272 16.5718 76.1631 16.5718Z" fill="white"/>
<path d="M57.2678 19.413V8.87008H61.1579L61.2684 9.6708C61.6663 9.40389 62.1894 9.16664 62.8377 8.95905C63.5008 8.75145 64.2081 8.64765 64.9595 8.64765C66.271 8.64765 67.2288 8.97387 67.8329 9.62632C68.437 10.2788 68.7391 11.2871 68.7391 12.6513V19.413H64.5838V13.0739C64.5838 12.5994 64.4807 12.2583 64.2744 12.0507C64.0681 11.8431 63.7071 11.7394 63.1913 11.7394C62.8819 11.7394 62.5577 11.8135 62.2188 11.9618C61.8947 12.1101 61.6294 12.288 61.4231 12.4956V19.413H57.2678Z" fill="white"/>
<path d="M48.01 19.5895C47.3468 19.5895 46.7279 19.4713 46.1532 19.2351C45.5933 18.9988 45.1438 18.6297 44.8049 18.1276C44.466 17.6256 44.2965 16.9906 44.2965 16.2228C44.2965 15.1153 44.6649 14.2588 45.4017 13.6534C46.1385 13.0332 47.2511 12.7231 48.7394 12.7231H51.4582V12.5238C51.4582 12.1103 51.2887 11.8076 50.9498 11.6157C50.6109 11.4237 50.014 11.3277 49.1594 11.3277C47.951 11.3277 46.7574 11.5123 45.5785 11.8815V9.37858C46.109 9.17186 46.7721 9.00204 47.5679 8.86915C48.3636 8.72148 49.1741 8.64765 49.9993 8.64765C51.6645 8.64765 52.9833 8.98728 53.9559 9.66653C54.9285 10.3458 55.4148 11.4237 55.4148 12.9003V19.368H51.7897L51.5908 18.5263C51.2224 18.8512 50.7435 19.1096 50.154 19.3015C49.5793 19.4935 48.8646 19.5895 48.01 19.5895ZM49.4246 17.153C49.8962 17.153 50.294 17.0718 50.6182 16.9094C50.9572 16.747 51.2371 16.5476 51.4582 16.3114V15.0045H49.4467C48.5331 15.0045 48.0763 15.3663 48.0763 16.0899C48.0763 16.7986 48.5257 17.153 49.4246 17.153Z" fill="white"/>
<path d="M30.3545 19.413V5.11803H38.2044C39.6531 5.11803 40.7545 5.45839 41.5084 6.1391C42.2624 6.81981 42.6393 7.79649 42.6393 9.06912C42.6393 9.80903 42.4989 10.4305 42.218 10.9337C41.9519 11.4368 41.5971 11.8364 41.1536 12.1323C41.7597 12.3691 42.2402 12.7169 42.595 13.1756C42.9646 13.6195 43.1494 14.2855 43.1494 15.1733C43.1494 16.52 42.7354 17.5632 41.9076 18.3031C41.0797 19.043 39.9044 19.413 38.3818 19.413H30.3545ZM34.3681 10.8227H37.0735C38.0935 10.8227 38.6035 10.364 38.6035 9.44648C38.6035 8.98773 38.4779 8.63998 38.2266 8.40321C37.99 8.16644 37.5687 8.04806 36.9626 8.04806H34.3681V10.8227ZM34.3681 16.5052H37.2509C37.8126 16.5052 38.2266 16.3868 38.4927 16.15C38.7587 15.9132 38.8918 15.5211 38.8918 14.9736C38.8918 14.5148 38.7587 14.1671 38.4927 13.9303C38.2266 13.6935 37.7831 13.5751 37.1622 13.5751H34.3681V16.5052Z" fill="white"/>
</svg>
